<svg fill="#FFF" id="icon-analysis-draw" viewBox="0 0 1240 1024">
  <title>Drawing</title>
  <path d="M955.715 836.285c0 10.402 1.886 20.318 5.282 29.534 12.019 32.552 43.331 55.835 80.034 55.835 47.104 0 85.315-38.211 85.315-85.315 0-32.984-18.701-61.548-46.080-75.776l88.226-283.163c3.018 0.323 5.982 0.539 9.054 0.539 47.104 0 85.315-38.211 85.315-85.315s-38.211-85.315-85.315-85.315c-47.104 0-85.315 38.211-85.315 85.315 0 31.96 17.516 59.769 43.547 74.429l-88.387 284.187-6.306-0.162c-45.811 0-83.052 36.163-85.154 81.435l-0.162 3.934zM1036.827 785.246l4.258-0.162c10.725 0 20.642 3.234 28.834 8.893 13.528 9.216 22.366 24.684 22.366 42.307 0 28.295-22.905 51.2-51.2 51.2-19.564 0-36.595-10.995-45.218-27.109-3.827-7.168-5.982-15.36-5.982-24.037 0-3.288 0.269-6.413 0.862-9.539 4.204-22.366 23.013-39.559 46.080-41.499zM1178.947 443.715h-1.347c-11.749 0-22.582-3.934-31.205-10.563-12.18-9.378-19.941-24.091-19.941-40.637 0-28.295 22.905-51.2 51.2-51.2s51.2 22.905 51.2 51.2c0 27.81-22.205 50.445-49.853 51.2zM392.515 1024c45.757 0 83.052-35.948 85.154-81.219l0.162-4.096c0-10.402-1.886-20.318-5.282-29.534-12.019-32.552-43.331-55.781-80.034-55.781-18.863 0-36.379 6.036-50.499 16.384l-183.134-160.93c7.491-12.665 11.803-27.379 11.803-43.17 0-13.528-3.072-26.355-8.731-37.726l748.706-484.19c15.522 16.546 37.619 26.947 62.141 26.947 47.104 0 85.315-38.211 85.315-85.315s-38.211-85.315-85.315-85.315c-47.104 0-85.315 38.211-85.315 85.315 0 10.348 1.94 20.157 5.282 29.373l-751.778 486.238c-14.929-12.881-34.331-20.642-55.619-20.642-47.104 0-85.315 38.211-85.315 85.315s38.211 85.315 85.315 85.315c18.971 0 36.487-6.252 50.661-16.707l183.134 160.768c-7.599 12.773-11.965 27.756-11.965 43.709 0 47.104 38.211 85.315 85.315 85.315zM940.032 124.766c-8.839-7.33-15.091-17.677-17.408-29.373-0.647-3.288-1.024-6.629-1.024-10.078 0-28.295 22.905-51.2 51.2-51.2s51.2 22.905 51.2 51.2c0 28.295-22.905 51.2-51.2 51.2-12.45 0-23.875-4.365-32.768-11.803zM132.419 685.541c-4.581 10.833-12.719 19.779-23.013 25.277-7.168 3.827-15.36 5.982-24.091 5.982-28.295 0-51.2-22.905-51.2-51.2s22.905-51.2 51.2-51.2c9 0 17.57 2.425 24.899 6.467 10.294 5.713 18.324 14.767 22.69 25.762 2.371 5.875 3.611 12.234 3.611 18.917 0 7.114-1.509 13.797-4.096 19.941zM345.627 918.205c4.689-10.725 12.935-19.51 23.229-24.899 7.114-3.719 15.144-5.821 23.714-5.821 19.564 0 36.595 11.048 45.218 27.109 3.827 7.168 5.982 15.36 5.982 24.091 0 3.288-0.269 6.467-0.862 9.539-4.419 23.768-25.331 41.661-50.338 41.661-28.295 0-51.2-22.905-51.2-51.2 0-7.276 1.563-14.228 4.258-20.48zM477.723 942.781l483.328-76.962c-3.395-9.216-5.282-19.133-5.282-29.534l0.162-3.934-483.328 76.8c3.395 9.216 5.282 19.133 5.282 29.534l-0.162 4.096z" class="path1"></path>
</svg>
