<svg version="1.1" id="Layer_1" xmlns="http://www.w3.org/2000/svg" xmlns:xlink="http://www.w3.org/1999/xlink" x="0px" y="0px"
	 viewBox="0 0 479 517.3" style="enable-background:new 0 0 250 250;" xml:space="preserve">
<style type="text/css">
	.st0{fill:#FFF;}
</style>
<path class="st0" d="M380.9,253.5c0-6.2,0.1-11.8,0-17.4c0-1.6,0.4-2,2-2c10.6,0.1,21.3,0.1,31.9,0c1.7,0,2.1,0.5,2.1,2.1
	c-0.1,14.8,0,29.7-0.1,44.5c0,1.4,0.4,2.5,1.4,3.6c11.1,12,22.2,24.1,33.4,36.1c1,1.1,1,1.7,0,2.7c-2.2,2.3-4.4,4.6-6.4,7.1
	c-1.1,1.3-1.7,1.1-2.8,0c-24.6-24.3-49.3-48.7-73.9-73c-7.3-7.2-14.7-14.4-21.9-21.7c-1.2-1.2-1.8-1.1-2.9,0
	c-31.8,31.4-63.6,62.8-95.4,94.2c-1.5,1.5-2.3,1.6-3.7-0.1c-1.8-2.3-3.8-4.4-5.9-6.4c-1.2-1.2-1-1.8,0.1-2.9
	c16.8-16.6,33.5-33.3,50.3-50c18.2-18.1,36.3-36.1,54.5-54.2c1.3-1.3,1.9-1.2,3.1,0.1c11,12,22,23.9,33,35.9
	C379.8,252.4,380.1,252.7,380.9,253.5z"/>
<path class="st0" d="M196.8,150.2c-3.2-2.8-6.3-5.4-9.3-8.2c-0.8-0.7-1.2-0.6-1.9,0.1c-2.4,2.2-4.9,4.3-7.3,6.5
	c-0.8,0.7-1.3,1-2.3,0.1c-2.4-2.2-4.9-4.4-7.4-6.5c-0.9-0.8-0.9-1.2,0-1.9c7.4-6.3,14.7-12.7,22-19.1c0.6-0.5,0.9-0.6,1.6-0.1
	c2.6,2.3,5.2,4.6,7.9,6.8c0.8,0.7,0.6,1-0.1,1.6c-2.5,2.2-5,4.4-7.5,6.6c-0.9,0.7-1,1.2,0,1.9c2.7,2.3,5.4,4.6,8.1,7
	c0.9,0.8,1.4,0.7,2.3,0c5.5-4.9,11.1-9.7,16.7-14.5c4.3-3.7,7.8-3.8,12.1-0.2c7.8,6.8,15.7,13.6,23.5,20.4c3.5,3,3.4,6.5-0.1,9.6
	c-5.7,5-11.3,9.9-17,14.8c-1.1,1-1.2,1.5,0,2.5c2.6,2.1,5.1,4.3,7.6,6.5c0.9,0.8,1.4,0.8,2.3,0c2.4-2.2,5-4.2,7.4-6.4
	c0.9-0.8,1.4-0.7,2.2,0c2.4,2.1,4.8,4.2,7.3,6.2c0.8,0.7,1,1.1,0,1.9c-7.4,6.4-14.7,12.8-22,19.2c-0.8,0.7-1.2,0.5-1.9-0.1
	c-2.5-2.2-5-4.4-7.5-6.6c-0.9-0.7-0.7-1.1,0.1-1.8c2.4-2.1,4.8-4.2,7.3-6.2c0.9-0.7,1.1-1.2,0.1-2c-2.7-2.2-5.3-4.5-7.9-6.8
	c-0.9-0.8-1.4-0.7-2.3,0.1c-4.2,3.8-8.6,7.4-12.8,11.2c-4.2,3.6-7.8,3.6-11.9,0c-7.6-6.6-15.2-13.2-22.8-19.8
	c-4.4-3.8-4.4-6.8,0.1-10.7C187.5,158.2,192.1,154.3,196.8,150.2z"/>
<path class="st0" d="M40.4,485.1c0-6.2,0.1-12.5,0-18.7c0-1.5,0.4-1.9,1.9-1.8c2,0.1,4,0.1,6,0c1.5-0.1,1.7,0.5,1.7,1.8
	c-0.1,4.3,0,8.5-0.1,12.8c0,1.3,0.3,1.7,1.7,1.7c5.2-0.1,10.4-0.1,15.5,0c1.3,0,1.7-0.3,1.7-1.7c-0.1-4.3,0-8.5-0.1-12.8
	c0-1.3,0.2-1.9,1.7-1.8c2.2,0.1,4.4,0.1,6.6,0c1,0,1.3,0.3,1.3,1.3c0,12.9,0,25.8,0,38.7c0,1.1-0.4,1.3-1.4,1.3
	c-2.3-0.1-4.5-0.1-6.8,0c-1.3,0.1-1.5-0.5-1.5-1.6c0-4.5,0-9.1,0.1-13.6c0-1.5-0.4-1.9-1.9-1.9c-5.1,0.1-10.2,0.1-15.3,0
	c-1.3,0-1.7,0.4-1.6,1.7c0.1,4.6,0,9.2,0.1,13.8c0,1.2-0.3,1.6-1.5,1.6c-2.1-0.1-4.3-0.1-6.4,0c-1.3,0.1-1.7-0.3-1.7-1.6
	C40.5,497.9,40.4,491.5,40.4,485.1z"/>
<path class="st0" d="M265.2,146.1c-0.9,0.1-1.5-0.4-2.1-0.9c-8.6-7.5-17.2-15-25.9-22.5c-1.1-1-1.2-2-0.5-3.2
	c2.7-4.5,6.5-7.6,11.3-9.7c1.3-0.6,2.4-0.3,3.5,0.7c8.5,7.4,17,14.8,25.5,22.2c1,0.9,1.6,1.9,0.9,3.1c-2.8,4.8-6.8,8.1-11.9,10.1
	C265.8,146.1,265.5,146,265.2,146.1z"/>
<path class="st0" d="M124.1,464.6c-5.2,8.6-10.1,16.9-15.1,25.1c-0.7,1.1-1,2.3-1,3.6c0.1,3.6,0,7.2,0,10.9c0,1.2-0.2,1.8-1.6,1.7
	c-2.2-0.1-4.4-0.1-6.6,0c-1.3,0.1-1.5-0.5-1.5-1.6c0.1-3.5,0-7,0.1-10.4c0-1.8-0.4-3.3-1.3-4.8c-4.5-7.4-9-14.9-13.5-22.4
	c-0.4-0.6-0.7-1.2-1.2-2.1c3.3,0,6.3,0,9.3,0c1.1,0,1.2,0.8,1.6,1.4c3,5,6,10.1,9,15.2c0.4,0.6,0.7,1.2,1.2,2
	c3.4-5.7,6.7-11.2,9.9-16.8c0.8-1.3,1.6-1.9,3.1-1.8C119.1,464.7,121.5,464.6,124.1,464.6z"/>
<path class="st0" d="M168,187.2c1.7,0,3.2,0.5,4.5,1.6c4.8,4.2,9.6,8.3,14.4,12.5c2,1.7,2.4,4,1.3,6.3c-1.8,3.8-5.9,6.1-10,5.7
	c-1.4-0.2-2.5-0.8-3.6-1.7c-4.6-4.1-9.3-8.1-13.9-12.2c-2.7-2.4-3-5-1-7.9C161.7,188.7,164.5,187.3,168,187.2z"/>
<path class="st0" d="M186.1,115.8c-0.4,0.3-0.8,0.5-1.1,0.8c-7.3,6.3-14.6,12.6-21.8,19c-0.7,0.6-1.2,0.7-2,0
	c-2.5-2.2-5-4.4-7.5-6.5c-0.9-0.7-0.7-1.1,0.1-1.8c7.3-6.4,14.6-12.8,22-19.1c0.5-0.4,0.9-0.9,1.6-0.3c2.7,2.4,5.4,4.8,8.1,7.2
	C185.6,115.2,185.7,115.4,186.1,115.8z"/>
<path class="st0" d="M171.6,102.1c-0.3,0.3-0.6,0.5-0.9,0.8c-7.2,6.3-14.5,12.5-21.7,18.8c-0.9,0.8-1.4,0.8-2.3,0
	c-2.3-2.1-4.7-4.1-7.1-6.1c-1-0.8-1.2-1.3-0.1-2.2c7.2-6.2,14.4-12.6,21.6-18.9c0.6-0.5,1-1.1,1.9-0.2c2.5,2.3,5.1,4.5,7.6,6.8
	C171.2,101.3,171.6,101.5,171.6,102.1z"/>
<path class="st0" d="M256.7,218.6c-0.3-0.2-0.6-0.4-0.8-0.6c-2.6-2.2-5.1-4.5-7.7-6.7c-0.9-0.7-0.7-1.1,0-1.8
	c7.4-6.3,14.7-12.7,22-19.1c0.8-0.7,1.3-0.6,1.9,0.1c2.4,2.2,4.9,4.3,7.4,6.4c0.9,0.7,0.9,1.2,0,1.9c-7.3,6.3-14.7,12.7-22,19.1
	C257.3,218.2,257,218.4,256.7,218.6z"/>
<path class="st0" d="M286.5,201.8c0.3,0.3,0.7,0.5,1,0.8c2.5,2.1,4.9,4.3,7.4,6.4c0.9,0.7,0.9,1.2,0,1.9c-7.3,6.3-14.6,12.6-21.8,19
	c-0.7,0.7-1.2,0.8-2.1,0c-2.4-2.2-4.9-4.3-7.3-6.5c-0.8-0.6-1.1-1-0.1-1.9c7.4-6.3,14.7-12.7,22-19.1
	C285.9,202.3,286.2,202.1,286.5,201.8z"/>
<path class="st0" d="M398.9,214.6c5.3,0,10.6,0.1,15.9,0c1.5,0,2.2,0.2,2.1,1.9c-0.2,2.1-0.1,4.3,0,6.4c0,1.1-0.3,1.5-1.5,1.5
	c-11.1,0-22.1,0-33.2,0c-1.2,0-1.4-0.5-1.4-1.5c0-2.2,0.1-4.4,0-6.6c-0.1-1.3,0.4-1.7,1.7-1.7C388,214.6,393.4,214.6,398.9,214.6z"
	/>
<path class="st0" d="M267.7,487.7c0-5.5,0-10.9,0-16.4c0-1.3,0.3-1.7,1.6-1.7c7.1,0.1,14.2,0,21.3,0c1.1,0,1.8,0.1,1.8,1.5
	c0,1.6-0.7,1.7-1.9,1.7c-5.7,0-11.4,0-17-0.1c-1.6,0-2.1,0.5-2,2c0.1,3.5,0.1,7.1,0,10.6c0,1.5,0.5,1.9,1.9,1.9
	c5-0.1,9.9,0,14.9-0.1c1.3,0,1.8,0.3,1.8,1.7c0,1.5-0.7,1.5-1.8,1.5c-5,0-10.1,0-15.1-0.1c-1.5,0-1.8,0.5-1.8,1.8
	c0.1,3.8,0,7.7,0,11.5c0,1.4-0.1,2.2-1.9,2.1c-1.6,0-2-0.5-2-2C267.8,498.5,267.7,493.1,267.7,487.7z"/>
<path class="st0" d="M420.2,506.1c-3.8,0-7.1-0.7-10.3-2.5c-1.3-0.7-0.9-1.4-0.4-2.3s0.8-1.4,2-0.7c3.7,2.2,7.8,2.9,12.1,1.9
	c2.3-0.5,3.5-1.9,3.5-3.9c0.1-2.3-1.5-3.2-3.4-3.7c-2.6-0.7-5.3-1.1-7.9-1.8c-4.2-1-6.1-3.2-6.2-6.7s2.2-6.3,6.2-7.3
	c4.3-1.1,8.4-0.6,12.5,1.1c1.2,0.5,1.7,1,0.9,2.3c-0.6,1.1-1,1.6-2.3,0.8c-3.1-1.8-6.6-2.1-10.1-1.1c-1.9,0.5-3.3,1.6-3.4,3.8
	c-0.1,2.3,1.3,3.4,3.2,3.9c2.8,0.8,5.7,1.3,8.5,2c3.9,1,5.7,3.1,5.8,6.3c0.1,3.3-1.8,5.8-5.4,7.1C423.8,505.9,421.9,506,420.2,506.1
	z"/>
<path class="st0" d="M303.1,486.7c0,5.8-0.1,11.6,0,17.4c0,1.6-0.7,1.8-2,1.8c-1.4,0-1.7-0.4-1.7-1.8c0.1-11.6,0-23.2,0-34.8
	c0-1.3,0.3-1.8,1.7-1.8c1.3,0,2,0.1,2,1.8C303,475.1,303.1,480.9,303.1,486.7z"/>
<g>
	<path class="st0" d="M424.6,329.9c-26.1-25.1-52.2-50.2-78.2-75.4c-1.1-1.1-1.7-1.1-2.8,0c-26.1,25.2-52.1,50.3-78.2,75.4
		c-1,1-1.3,1.9-1.3,3.2c0,4.5,0,9,0,13.6c-4.6-0.9-8.7-2.5-12.5-4.9c-3.8-2.4-7.1-5.4-9.9-9c-3.8,4.3-7.8,8.2-12.6,11.2
		c-9.4,6-19.3,7.5-29.6,2.3c-6.2-3.1-11-7.9-15.3-13.5c-1.9,2.6-3.9,5-6.2,7.1c-7.8,7.3-16.8,10.5-27.5,8.7
		c-9.9-1.7-18.1-6.5-25.5-12.9c-1.3-1-1.9-1.2-3.3-0.1c-11.6,9-24.7,14-39.6,13.4c-1.4-0.1-2.3-0.5-3.1-1.7
		c-26.9-38.1-38-80.4-32.7-126.7c3-25.7,11.4-49.6,24.5-71.9c16.7-28.3,39.1-50.9,67.3-67.8c26.9-16.1,56-25.3,87.3-27.6
		c22.7-1.7,45.1,0.6,67.1,6.9c20.7,6,39.8,15.2,57.3,27.7c15.6,11.2,29.1,24.7,40.5,40.1c0.9,1.2,1.5,1.4,2.8,0.8
		c4.5-2.1,9.2-4.1,13.8-6c1.4-0.6,1.6-1,0.7-2.3c-4-5.5-8.2-10.9-12.7-16C367.5,73.8,334,53,294.2,42.3c-15.2-4.1-30.7-6.5-46.4-7.1
		c-30.8-1.1-60.5,4.2-89.1,15.8c-34.1,13.9-63.2,34.7-86.1,63.6C37.9,158.3,22,207.9,27.7,263.9c1.7,17.5,6.1,34.4,12.5,50.8
		c10.1,25.6,24.9,48.1,44.5,67.5c12.4,12.2,26,22.8,41.1,31.4c22.1,12.5,45.6,21.1,70.7,25.1c18.5,2.9,37,3.5,55.6,1.7
		c5.7-0.5,11.2-1.9,16.9-1.9c15.5,0,31.1,0,46.6,0.1c2.2,0,2.5-0.6,2.5-2.6l-0.1-63.8c0-1.7,0.4-2.2,2.2-2.2
		c16.5,0.1,32.9,0.1,49.4,0c1.8,0,2.3,0.4,2.3,2.3c-0.1,21.3,0,42.5-0.1,63.7c0,1.7,0.3,2.3,2.2,2.3c16.5-0.1,33.1-0.2,49.6-0.2
		c1.8,0,2.3-0.4,2.3-2.2c0-34.2,0-68.5,0-102.8C425.9,331.7,425.6,330.8,424.6,329.9z M262.8,421.1c-12,1.9-24.1,2.8-36.3,2.6
		c-19.5-0.3-38.5-3.8-56.9-10c-0.3-0.1-0.6-0.3-1.1-0.5c3.6-1.8,7-3.5,10.2-5.6c1.1-0.7,1.4,0.3,1.9,0.8c4.5,4.5,9.6,8.2,15.6,10.4
		c10.1,3.6,19.5,1.7,28.6-3.3c4.2-2.3,8-5.2,11.3-8.6c1-1.1,1.5-1.1,2.6,0c5.8,5.8,12.2,10.6,20.3,12.6c1.4,0.3,2.8,0.5,4.2,0.7
		c0,0.1,0,0.1,0,0.2c0.3,0,0.8-0.1,0.7,0.3C263.8,421.3,263.2,421.1,262.8,421.1z M264.1,381.4c0,10.4,0,20.7,0,31.1
		c0,1.4-0.3,1.8-1.8,1.7c-7.3-0.6-13.1-4.2-18.4-9c-2.6-2.4-4.9-5.1-7-8.2c-2.7,3.6-5.5,7.1-8.9,9.9c-10.5,8.8-21.8,8.6-33.6,3.1
		c-5.4-2.5-10.3-6-14.5-10.2c-1-1-1.6-1-2.7,0c-4.6,4-9.7,7.3-15.3,9.8c-0.9,0.4-1.7,0.7-2.8,0.2c-14.2-5.8-27.5-13-39.9-22.1
		c-0.2-0.2-0.5-0.5-1-0.9c11.4-0.9,21.6-4.3,31.1-9.9c1.1-0.6,1.8-0.6,2.7,0.3c4.2,4,8.9,7.3,14.3,9.4c11.8,4.6,23.1,2.7,33.9-3.4
		c3.6-2,7-4.3,9.9-7.3c1.2-1.2,1.8-0.9,2.8,0.1c4.5,4.2,9.4,7.8,15.1,10.1c12.3,5.2,23.7,3,34.2-4.8c0.5-0.4,1-0.8,1.5-1.2
		c0,0,0.1,0,0.2,0.1C264.3,380.5,264.1,381,264.1,381.4z M264.2,351.2c-0.1,6.2,0,12.5,0,18.7c0,0.7-0.1,1.2-0.6,1.7
		c-7.2,6.5-15.2,11.5-25.4,11.1c-9.5-0.4-16.9-5.3-23.2-11.9c-1.4-1.4-2.6-3-3.9-4.6c-2.7,3.5-5.6,6.7-9,9.4
		c-9.9,7.8-20.8,8.5-32.3,4.4c-6.8-2.4-12.8-6.3-18.2-11.1c-1.2-1-1.8-1-2.9-0.1c-9.4,7.3-19.8,12-31.7,13.3c-2.6,0.3-4.8,0.1-7-1.8
		c-8.9-7.7-17.3-16-24.8-25.1c-0.6-0.3-0.9-0.7-1.5-1.5c12.1,0.6,23-2,33.5-7c1.8-0.9,3.6-1.7,5.2-2.8c1.4-1,2.2-0.6,3.2,0.4
		c8.1,7.6,17.5,12.3,28.9,11.6c9.2-0.5,17.2-4.3,24.5-9.8c1.3-1,2.6-2,3.7-3.2c1.2-1.3,2-1.3,3.4,0c5,4.6,9.1,8.8,15.6,11
		c15,3.8,28.4,0.1,38.8-10.9c1.4-1.5,1.9-1.4,3.2,0c5.1,5.5,12.3,8.4,19.6,7.9C264.6,350.8,264.2,351.2,264.2,351.2z M371.9,349
		c0,1.5-0.4,1.9-1.9,1.9c-8.3,0-16.7,0-25.1,0c-8.3,0-16.6,0-24.9,0c-1.6,0-2-0.4-2-2c0.1-11.7,0.1-23.4,0-35.1
		c0-1.5,0.4-1.9,1.9-1.9c16.7,0.1,33.5,0.1,50.2,0c1.4,0,1.8,0.4,1.8,1.8C371.8,325.5,371.8,337.2,371.9,349z"/>
	<path class="st0" d="M263.3,420.4C263.3,420.4,263.3,420.4,263.3,420.4c-0.1,0.2-0.3,0.5-0.4,0.7C263,421,263.3,420.9,263.3,420.4z
		"/>
</g>
<path class="st0" d="M151.3,465c-7.2-1-14.5-0.2-21.7-0.5c-1.7,0-1.9,0.6-1.9,2.1c0,6.2,0,12.3,0,18.5c0,6.4,0,12.7,0,19.1
	c0,0.8-0.2,1.7,1.2,1.7c7.5-0.2,15,0.6,22.5-0.4c10.9-1.4,17.9-9.6,17.9-20.3C169.3,474.4,162.2,466.4,151.3,465z M159.6,486.1
	c-0.4,6.8-5.1,11.4-12.1,11.8c-2.9,0.2-5.8,0-8.7,0.1c-1.2,0-1.6-0.3-1.6-1.5c0.1-4,0-7.8,0-11.5c0-3.5,0.1-7.1,0-10.6
	c0-1.4,0.4-1.8,1.8-1.7c3.3,0.2,6.7-0.3,10,0.3C156,474.2,160.1,479.2,159.6,486.1z"/>
<path class="st0" d="M204.8,493.9c-0.7-1-0.6-1.4,0.5-2c3.1-1.6,5.3-4.1,6.4-7.5c3-9.2-2.5-17.9-12.4-19.3
	c-7.2-1.1-14.5-0.3-21.7-0.5c-1.1-0.1-1.1,0.5-1.1,1.3c0,12.9,0,25.8,0,38.7c0,1,0.4,1.3,1.4,1.3c2.2-0.1,4.4-0.1,6.6,0
	c1.3,0.1,1.8-0.2,1.7-1.6c-0.2-2.8,0-5.5-0.1-8.3c-0.1-1.3,0.2-1.8,1.6-1.7c1.9,0.1,3.8,0.1,5.7,0c1.1-0.1,1.8,0.4,2.4,1.3
	c2.1,3.1,4.2,6.1,6.3,9.1c0.5,0.7,0.8,1.2,1.8,1.2c3,0,5.9,0,9.3,0C210.2,501.6,207.6,497.7,204.8,493.9z M196.2,486.6
	c-3,0.4-6.1,0.1-9.1,0.2c-0.9,0-1-0.4-1-1.2c0.1-2.1,0-4.2,0-6.2c0-1.9,0-3.8,0-5.7c0-1,0.1-1.6,1.3-1.5c2.7,0.1,5.4,0,8.1,0.1
	c4.3,0.2,7,2.7,7.2,6.6C202.9,483.2,200.7,486,196.2,486.6z"/>
<path class="st0" d="M259.9,503.6l-16.3-37.2c-0.3-0.7-1-1.9-2.2-1.9h-6.6c-1.5,0-2,0.5-2.6,1.8c-3.8,8.6-7.7,17.2-11.5,25.8
	c-2,4.5-4,9-6.1,13.8c3,0,5.7-0.1,8.3,0c1,0.1,1.5-0.3,1.9-1.2c0.8-2.2,1.8-4.3,2.6-6.5c0.4-1,0.9-1.3,1.9-1.3
	c5.5,0.1,11.1,0,16.6,0c1.1,0,1.6,0.4,1.9,1.3c0.8,2.2,1.7,4.3,2.6,6.5c0.2,0.5,0.3,1.2,1.2,1.2c3,0,6,0,9.2,0
	C260.4,504.9,260.2,504.2,259.9,503.6z M231.2,489.6c2.1-5.1,4.2-10,6.5-15.5c2.2,5.4,4.3,10.3,6.5,15.5
	C239.7,489.6,235.6,489.6,231.2,489.6z"/>
<path class="st0" d="M402.6,469.1c0-1.6-0.7-1.5-1.8-1.5c-1.2,0-2.1-0.1-2,1.6c0.1,4.1,0,8.2,0,12.3c0,0.6,0.3,1.3-0.3,1.8
	c-6-7.4-15.6-5.2-19.6-1c-5.2,5.4-5,15,0.3,20.2c4.1,4.1,13.7,5.9,19.8-1.7c0,1.5,0.1,2.6,0.1,3.7c-0.2,1.5,0.7,1.5,1.8,1.5
	c1.1,0,1.7-0.2,1.7-1.6C402.5,492.7,402.5,480.9,402.6,469.1z M388.9,502.9c-5.9,0-10.2-4.5-10.1-10.7c0.1-6.2,4.3-10.6,10.1-10.6
	c5.8,0,9.9,4.4,9.9,10.6S394.7,502.8,388.9,502.9z"/>
<path class="st0" d="M356.5,478.5c-8,0-13.7,5.8-13.7,13.7c0,8,5.7,13.9,13.7,13.9c7.9,0,13.7-5.8,13.7-13.9
	C370.2,484.1,364.5,478.4,356.5,478.5z M356.2,502.9c-5.8-0.2-9.8-4.7-9.7-10.9c0.2-6.3,4.4-10.6,10.5-10.4
	c5.7,0.2,9.7,4.7,9.6,10.8C366.5,498.7,362.2,503,356.2,502.9z"/>
<path class="st0" d="M324.2,478.4c-8,0.1-13.7,5.9-13.7,13.9c0,7.9,6,13.8,13.9,13.7c7.9-0.1,13.6-5.9,13.6-13.8
	C338,484.2,332.2,478.3,324.2,478.4z M324.3,502.9c-6-0.1-10-4.4-10-10.7c0-6.2,4.1-10.6,10-10.6c6,0,10.1,4.4,10.1,10.8
	C334.4,498.6,330.2,503,324.3,502.9z"/>
<path class="st0" d="M361.6,438.8h-33.2c-0.7,0-1.3-0.6-1.3-1.3v-55.9c0-0.7,0.6-1.3,1.3-1.3h33.2c0.7,0,1.3,0.6,1.3,1.3v55.9
	C362.9,438.2,362.3,438.8,361.6,438.8z"/>
</svg>
