<svg version="1.1" xmlns="http://www.w3.org/2000/svg" xmlns:xlink="http://www.w3.org/1999/xlink" x="0px" y="0px" viewBox="55 55 75 75" >
<style type="text/css">
  .st0{fill:none;stroke:#000000;stroke-width:2;stroke-miterlimit:10;}
  .st1{fill:none;stroke:#000000;stroke-miterlimit:10;}
  .st2{fill:none;stroke:#000000;stroke-width:2;stroke-miterlimit:10;}
  .st3{fill:none;stroke:#000000;stroke-width:2;stroke-miterlimit:10;}
  .st4{display:none;}
  .st5{display:inline;}
  .st6{fill:none;stroke:#000000;stroke-width:2;stroke-linecap:round;stroke-miterlimit:10;}
  .st7{fill:none;stroke:#000000;stroke-width:0.75;stroke-linecap:round;stroke-miterlimit:10;}
  .st8{stroke:#FFFFFF;stroke-miterlimit:10;}
  .st9{stroke:#FFFFFF;stroke-width:0.75;stroke-miterlimit:10;}
  .st10{fill:none;stroke:#000000;stroke-width:2;stroke-linecap:round;stroke-linejoin:round;stroke-miterlimit:10;}
  .st11{fill:none;stroke:#000000;stroke-width:2;stroke-linecap:round;stroke-linejoin:round;stroke-miterlimit:10;}
  .st12{fill:none;stroke:#000000;stroke-width:2;stroke-linecap:round;stroke-linejoin:round;stroke-miterlimit:10;}
  .st13{fill:none;stroke:#000000;stroke-linecap:round;stroke-linejoin:round;stroke-miterlimit:10;}
</style>
<g id="Layer_2">
  <g>
    <g>
      <path class="st0" d="M108.2,110.1H68.5c-2.8,0-5-2.2-5-5V65.5c0-2.8,2.2-5,5-5h39.6c2.8,0,5,2.2,5,5v39.6
        C113.2,107.9,110.9,110.1,108.2,110.1z"/>
      <path class="st1" d="M113.3,114.2H73.7c-2.8,0-5-2.2-5-5V69.6c0-2.8,2.2-5,5-5h39.6c2.8,0,5,2.2,5,5v39.6
        C118.3,112,116.1,114.2,113.3,114.2z"/>
    </g>
    <path class="st2" d="M71.5,113.3l13-34.5c1.2-1.2,3.1-1.1,4.3,0.1l14.7,35.3"/>
    <path class="st2" d="M97.4,99.6l4-10.4c0.9-0.9,2.3-0.8,3.2,0.1l10.2,24.4"/>
    <circle class="st3" cx="105.2" cy="73.2" r="3.5"/>
  </g>
</g>
<g id="Layer_3" class="st4">
  <g class="st5">
    <path class="st6" d="M65.1,65.8c0,0,3.8,0.7,5.8,2.8c2.2,2.2,5.3,1.3,6.3-0.3c1.3-2,4.4-4.5,8.7-0.4c4.3,4,6.9,0.8,7.5,0
      c0.6-0.9,3.8-3.8,7.9-0.4c4.2,3.4,6.7,1.2,7.7,0.2c1-1.1,4.3-3.3,7.8-0.1c3.5,3.2,5,1.8,5,1.8"/>
    <path class="st7" d="M65.1,73.9c0,0,3.8,0.7,5.8,2.8c2.2,2.2,5.3,1.3,6.3-0.3c1.3-2,4.4-4.5,8.7-0.4c4.3,4,6.9,0.8,7.5,0
      c0.6-0.9,3.8-3.8,7.9-0.4c4.2,3.4,6.7,1.2,7.7,0.2c1-1.1,4.3-3.3,7.8-0.1c3.5,3.2,5,1.8,5,1.8"/>
    <path class="st6" d="M65.1,82.1c0,0,3.8,0.7,5.8,2.8c2.2,2.2,5.3,1.3,6.3-0.3c1.3-2,4.4-4.5,8.7-0.4c4.3,4,6.9,0.8,7.5,0
      c0.6-0.9,3.8-3.8,7.9-0.4c4.2,3.4,6.7,1.2,7.7,0.2c1-1.1,4.3-3.3,7.8-0.1c3.5,3.2,5,1.8,5,1.8"/>
    <path class="st6" d="M65.1,98.3c0,0,3.8,0.7,5.8,2.8c2.2,2.2,5.3,1.3,6.3-0.3c1.3-2,4.4-4.5,8.7-0.4c4.3,4,6.9,0.8,7.5,0
      c0.6-0.9,3.8-3.8,7.9-0.4s6.7,1.2,7.7,0.2c1-1.1,4.3-3.3,7.8-0.1c3.5,3.2,5,1.8,5,1.8"/>
    <path class="st7" d="M65.1,90.2c0,0,3.8,0.7,5.8,2.8c2.2,2.2,5.3,1.3,6.3-0.3c1.3-2,4.4-4.5,8.7-0.4c4.3,4,6.9,0.8,7.5,0
      c0.6-0.9,3.8-3.8,7.9-0.4s6.7,1.2,7.7,0.2c1-1.1,4.3-3.3,7.8-0.1c3.5,3.2,5,1.8,5,1.8"/>
    <path class="st7" d="M65.1,106.4c0,0,3.8,0.7,5.8,2.8c2.2,2.2,5.3,1.3,6.3-0.3c1.3-2,4.4-4.5,8.7-0.4c4.3,4,6.9,0.8,7.5,0
      c0.6-0.9,3.8-3.8,7.9-0.4s6.7,1.2,7.7,0.2c1-1.1,4.3-3.3,7.8-0.1c3.5,3.2,5,1.8,5,1.8"/>
    <g>
      <path class="st8" d="M100.3,68.3c0-4.5,8.4-12.3,8.4-12.3s7.8,7.9,7.8,12.3c0,4.5-3.6,8.1-8.1,8.1
        C104,76.3,100.3,72.7,100.3,68.3z"/>
      <path class="st9" d="M112.2,75.1c0-1.8,3.4-5,3.4-5s3.1,3.2,3.1,5c0,1.8-1.5,3.2-3.2,3.2S112.2,76.9,112.2,75.1z"/>
    </g>
  </g>
</g>
<g id="Layer_4" class="st4">
  <g class="st5">
    <polygon class="st10" points="75.6,85.8 110.2,85.2 103.1,62.7 85,59.2 72,73.4 		"/>
    <polyline class="st11" points="111.4,61.5 83.7,56 65.3,75.9 		"/>
    <polyline class="st10" points="98.7,84.8 95.8,75.4 85,78.8 87.7,86.7 		"/>
    <g>
      <path class="st12" d="M109.6,83.5c0,3-2.6,5.5-5.7,5.5c-3.2,0-5.7-2.5-5.7-5.5"/>
      <path class="st12" d="M121.2,83.5c0,3-2.6,5.5-5.7,5.5c-3.2,0-5.7-2.5-5.7-5.5"/>
      <path class="st12" d="M98.1,83.5c0,3-2.6,5.5-5.7,5.5c-4.1,0-5.7-2.5-5.7-5.5"/>
      <path class="st12" d="M86.5,83.5c0,3-2.6,5.5-5.7,5.5c-3.2,0-5.7-2.5-5.7-5.5"/>
      <path class="st12" d="M75,83.5c0,3-2.6,5.5-5.7,5.5c-3.2,0-5.7-2.5-5.7-5.5"/>
    </g>
    <g>
      <path class="st12" d="M108.9,102.3c0,3-2.5,5.5-5.5,5.5c-3,0-5.5-2.5-5.5-5.5"/>
      <path class="st12" d="M119.9,102.3c0,3-2.5,5.5-5.5,5.5c-3,0-5.5-2.5-5.5-5.5"/>
      <path class="st12" d="M97.8,102.3c0,3-2.5,5.5-5.5,5.5c-3,0-5.5-2.5-5.5-5.5"/>
      <path class="st12" d="M86.7,102.3c0,3-2.5,5.5-5.5,5.5c-3,0-5.5-2.5-5.5-5.5"/>
      <path class="st12" d="M75.6,102.3c0,3-2.5,5.5-5.5,5.5c-3,0-5.5-2.5-5.5-5.5"/>
    </g>
    <g>
      <path class="st13" d="M114.8,93.1c0,3-2.5,5.5-5.5,5.5c-3,0-5.5-2.5-5.5-5.5"/>
      <path class="st13" d="M125.9,93.1c0,3-2.5,5.5-5.5,5.5c-3,0-5.5-2.5-5.5-5.5"/>
      <path class="st13" d="M103.7,93.1c0,3-2.5,5.5-5.5,5.5c-3,0-5.5-2.5-5.5-5.5"/>
      <path class="st13" d="M92.6,93.1c0,3-2.5,5.5-5.5,5.5c-3,0-5.5-2.5-5.5-5.5"/>
      <path class="st13" d="M81.6,93.1c0,3-2.5,5.5-5.5,5.5c-3,0-5.5-2.5-5.5-5.5"/>
    </g>
  </g>
</g>
</svg>
