<svg version="1.1" id="Layer_1" xmlns="http://www.w3.org/2000/svg" xmlns:xlink="http://www.w3.org/1999/xlink" x="0px" y="0px"
   viewBox="20 50 250 250" xml:space="preserve">
<style type="text/css">
  .st0_0{fill:none;stroke:#333;stroke-width:3;stroke-miterlimit:10;}
  .st1_1{fill:#333;stroke:#333;stroke-width:3;stroke-miterlimit:10;}
  .st2_2{fill:none;stroke:#333;stroke-miterlimit:10;}
  .st3_3{fill:#333;stroke:#333;stroke-miterlimit:10;}
  .st4_4{fill:#333;}
</style>
<polygon class="st0_0" points="252,108.7 231.9,122.5 157.3,173.7 71.2,129.1 51.5,118.9 143.9,58.2 "/>
<polygon class="st1_1" points="252,131.8 157.3,196.8 51.5,142 71.2,129.1 157.3,173.7 231.9,122.5 "/>
<polygon class="st0_0" points="252,155.3 157.3,220.3 51.5,165.5 71.2,152.6 157.3,197.1 231.9,146 "/>
<polygon class="st1_1" points="252,179.2 157.3,244.1 51.5,189.4 71.2,176.4 157.3,221 231.9,169.8 "/>
<polyline class="st2_2" points="71.2,129.1 91.3,116.1 102,109.2 84.4,97.3 "/>
<path class="st2_2" d="M92.2,139.9c21.2-18.1,41.8-4.9,41.8-4.9s36.8,29.4,74.2,3.7"/>
<path class="st2_2" d="M124.5,130.4c0,0,25-25.8,2.5-30.6s-24-3.1-21.8-16.2"/>
<path class="st2_2" d="M155.3,146c0,0,4.7-38.8,33.2-29.9s37.5,0.8,33.5-6.9s-19-9.1-11-19.6"/>
<circle class="st3_3" cx="183.1" cy="83.4" r="5"/>
<polyline class="st3_3" points="113.2,87.3 135.3,95.9 159.6,75.7 "/>
<ellipse class="st3_3" cx="145.2" cy="126.4" rx="4.8" ry="4"/>
<ellipse class="st3_3" cx="183.1" cy="130.4" rx="4.8" ry="4"/>
<ellipse class="st3_3" cx="120.4" cy="107" rx="4.8" ry="4"/>
<ellipse class="st4_4" cx="233" cy="111" rx="4.8" ry="4"/>
</svg>
