<svg id="Capa_1" enable-background="new 0 0 512 512" height="512" viewBox="0 0 900 900" width="512" xmlns="http://www.w3.org/2000/svg">
  <g>
    <g>
      <path d="m269.687 205.047c-9.954 0-19.313 3.877-26.352 10.915-7.039 7.039-10.915 16.397-10.915 26.352s3.876 19.313 10.915 26.353c7.265 7.265 16.809 10.897 26.352 10.897s19.086-3.633 26.352-10.897c7.038-7.039 10.915-16.398 10.915-26.353s-3.877-19.313-10.915-26.351c-7.04-7.039-16.398-10.916-26.352-10.916zm15.744 53.012c-8.682 8.683-22.807 8.682-31.489.001-4.206-4.206-6.521-9.798-6.521-15.746 0-5.947 2.316-11.539 6.521-15.745 4.206-4.205 9.798-6.521 15.745-6.521s11.539 2.316 15.745 6.522c4.205 4.205 6.521 9.797 6.521 15.744 0 5.948-2.316 11.54-6.522 15.745z"/>
      <path d="m508.339 407.25-125.14-125.139c-2.361-2.362-5.5-3.663-8.84-3.663s-6.479 1.301-8.839 3.661l-14.403 14.402-11.644-11.644 37.151-37.151c7.051-7.052 8.422-17.655 4.137-26.101l9.109-9.109 3.03 3.03c2.361 2.362 5.5 3.663 8.84 3.663s6.479-1.301 8.838-3.661l16.489-16.488c4.871-4.874 4.871-12.803-.001-17.676l-96.439-96.439c-4.873-4.873-12.803-4.874-17.678.001l-16.484 16.485c-2.362 2.361-3.663 5.5-3.663 8.84s1.301 6.479 3.661 8.839l3.031 3.031-9.109 9.109c-8.447-4.285-19.048-2.915-26.101 4.136l-37.151 37.151-11.645-11.645 14.402-14.403c2.361-2.36 3.662-5.5 3.662-8.839s-1.3-6.479-3.661-8.839l-125.141-125.139c-2.361-2.361-5.5-3.662-8.839-3.662s-6.478 1.301-8.838 3.661l-82.385 82.384c-2.361 2.36-3.662 5.5-3.662 8.839s1.3 6.479 3.661 8.839l125.141 125.142c2.437 2.437 5.637 3.654 8.838 3.654s6.402-1.219 8.839-3.654l14.401-14.401 11.645 11.645-26.541 26.541c-7.083 7.083-10.983 16.499-10.983 26.516s3.9 19.433 10.983 26.516l10.776 10.776-9.762 9.762c-8.516-3.824-17.741-6.06-27.256-6.501-18.59-.863-36.73 5.138-51.067 16.896-2.95 2.421-4.75 6.005-4.938 9.834-.19 3.868 1.271 7.658 4.009 10.396l37.888 37.888-14.535 14.534c-10.058-5.469-22.932-3.963-31.429 4.534-10.339 10.34-10.339 27.162 0 37.501 5.009 5.01 11.668 7.769 18.751 7.769s13.742-2.759 18.75-7.768c8.497-8.498 10.005-21.372 4.535-31.43l14.534-14.534 37.889 37.889c2.579 2.579 6.09 4.024 9.723 4.024.224 0 .449-.005.673-.017 3.829-.188 7.412-1.988 9.832-4.938 11.759-14.337 17.76-32.473 16.897-51.067-.442-9.514-2.677-18.738-6.501-27.255l9.762-9.762 10.777 10.777c7.311 7.31 16.913 10.965 26.515 10.965s19.206-3.655 26.516-10.965l26.543-26.543 11.644 11.644-14.401 14.401c-4.873 4.874-4.873 12.804 0 17.678l125.142 125.142c2.438 2.437 5.638 3.654 8.839 3.654s6.401-1.218 8.839-3.654l82.382-82.384c2.362-2.361 3.663-5.5 3.663-8.84s-1.301-6.478-3.661-8.838zm-420.748 33.446c0 .001 0 .001 0 0-2.176 2.177-5.068 3.375-8.144 3.375-3.077 0-5.969-1.198-8.145-3.375-4.491-4.49-4.491-11.797 0-16.287 2.246-2.246 5.195-3.368 8.145-3.368 2.949 0 5.898 1.122 8.144 3.368 4.491 4.49 4.491 11.797 0 16.287zm375.657-57.323-34.12 34.12-22.783-22.783 34.12-34.12zm-33.39-33.39-34.12 34.12-22.783-22.783 34.12-34.12zm-55.499-55.499 22.108 22.108-34.12 34.12-22.109-22.109zm-20.071-138.772-45.451-45.451 12.95-12.951 92.903 92.903-12.951 12.95-22.784-22.785c-2.93-2.928-7.678-2.928-10.607 0-2.929 2.93-2.929 7.678 0 10.607l10.915 10.914-8.318 8.318-69.162-69.162 8.318-8.318 33.581 33.582c2.93 2.928 7.678 2.928 10.607 0 2.928-2.929 2.928-7.677-.001-10.607zm-136.772-18.071-34.121 34.121-22.109-22.109 34.121-34.121zm-66.106-66.106-4.271 4.271c-2.929 2.93-2.929 7.678 0 10.607 1.464 1.464 3.384 2.196 5.303 2.196s3.839-.732 5.303-2.196l4.271-4.271 22.783 22.783-34.121 34.121-22.783-22.783 5.057-5.057c2.929-2.93 2.929-7.678 0-10.607-2.929-2.928-7.678-2.928-10.606 0l-5.058 5.058-22.782-22.785 34.12-34.12zm-55.499-55.499 22.108 22.108-34.12 34.12-22.108-22.108zm-78.849 78.848 34.121-34.121 22.109 22.109-34.121 34.121zm32.716 32.716 34.121-34.121 22.784 22.784-34.121 34.121zm33.391 33.39 34.121-34.121 22.783 22.783-34.121 34.121zm55.498 55.499-22.109-22.109 34.121-34.121 22.109 22.109zm33.848-12.633 32.366-32.367 11.645 11.645-32.366 32.367zm-7.778 227.741-84.333-84.334c23.911-18.644 57.765-16.616 79.357 4.977 21.592 21.591 23.621 55.446 4.976 79.357zm13.244-81.036c-2.292-3.145-4.824-6.138-7.614-8.929-2.79-2.79-5.783-5.322-8.928-7.613l6.954-6.954 16.542 16.542zm118.519-22.72 5.337-5.337c2.929-2.93 2.929-7.678 0-10.607-2.93-2.928-7.678-2.928-10.607 0l-42.486 42.487c-8.772 8.771-23.045 8.772-31.818 0l-59.309-59.31c-8.772-8.771-8.772-23.045 0-31.816l117.274-117.274c2.924-2.925 7.681-2.924 10.604 0l80.521 80.521c2.924 2.924 2.924 7.681 0 10.604l-49.787 49.787c-2.929 2.93-2.929 7.678 0 10.607 2.93 2.928 7.678 2.928 10.607 0l2.029-2.029 11.644 11.644-32.366 32.366zm-.989 45.491 34.121-34.12 22.109 22.109-34.121 34.121zm32.716 32.716 34.121-34.121 22.783 22.783-34.121 34.121zm33.39 33.39 34.121-34.121 22.783 22.783-34.121 34.121zm55.499 55.5-22.109-22.109 34.121-34.121 22.109 22.109zm44.728-44.729-22.109-22.109 34.12-34.12 22.108 22.108z"/>
      <path d="m62.163 497c-26.006 0-47.163-21.157-47.163-47.163 0-4.143-3.358-7.5-7.5-7.5s-7.5 3.357-7.5 7.5c0 34.276 27.886 62.163 62.163 62.163 4.142 0 7.5-3.357 7.5-7.5s-3.358-7.5-7.5-7.5z"/>
      <path d="m62.163 467.762c-9.883 0-17.924-8.041-17.924-17.925 0-4.143-3.358-7.5-7.5-7.5s-7.5 3.357-7.5 7.5c0 18.155 14.77 32.925 32.924 32.925 4.142 0 7.5-3.357 7.5-7.5s-3.358-7.5-7.5-7.5z"/>
      <path d="m216.443 262.007c-3.791-3.791-8.843-5.879-14.227-5.879s-10.436 2.088-14.226 5.878-5.877 8.843-5.877 14.227 2.087 10.437 5.877 14.227l33.551 33.551c3.791 3.791 8.843 5.878 14.227 5.878s10.436-2.087 14.227-5.878c7.843-7.844 7.843-20.608 0-28.453zm22.945 51.396c-.958.958-2.243 1.484-3.62 1.484s-2.663-.526-3.62-1.483c0 0 0 0 0-.001l-33.551-33.552c-.957-.957-1.484-2.242-1.484-3.619s.527-2.662 1.484-3.62c.957-.957 2.242-1.484 3.619-1.484s2.663.527 3.62 1.485l33.551 33.55c1.996 1.996 1.996 5.245.001 7.24z"/>
      <circle cx="295.375" cy="182.36" r="7.572"/>
      <circle cx="312.507" cy="199.493" r="7.572"/>
      <path d="m334.994 221.979c2.957-2.957 2.957-7.751 0-10.708s-7.751-2.957-10.708 0-2.957 7.751 0 10.708 7.751 2.957 10.708 0z"/>
    </g>
  </g>
</svg>
